<svg width="334" height="44" viewBox="0 0 334 44" fill="none" xmlns="http://www.w3.org/2000/svg">
<mask id="path-1-outside-1_22_547" maskUnits="userSpaceOnUse" x="-2" y="-1" width="338" height="46" fill="black">
<rect fill="white" x="-2" y="-1" width="338" height="46"/>
<path d="M0.0852273 44L7.32955 0.363635H19.1761L16.3636 17.4091H32.0455L34.858 0.363635H46.7045L39.4602 44H27.6136L30.4261 26.9545H14.7443L11.9318 44H0.0852273ZM45.0852 44L52.3295 0.363635H83.7784L82.1591 9.90909H62.5568L61.3636 17.4091H79.3466L77.7273 26.9545H59.7443L58.5511 34.4545H78.0682L76.4489 44H45.0852ZM82.4094 44L89.6538 0.363635H101.5L95.8754 34.4545H113.517L111.898 44H82.4094ZM116.687 44L123.931 0.363635H142.766C146.005 0.363635 148.732 1.00284 150.948 2.28125C153.164 3.55966 154.755 5.35653 155.721 7.67188C156.687 9.98722 156.914 12.6932 156.403 15.7898C155.891 18.9432 154.755 21.6634 152.994 23.9503C151.246 26.223 149.016 27.9773 146.303 29.2131C143.604 30.4347 140.579 31.0455 137.227 31.0455H125.977L127.511 21.8409H136.374C137.795 21.8409 139.045 21.5994 140.124 21.1165C141.204 20.6193 142.077 19.9233 142.745 19.0284C143.413 18.1193 143.846 17.0398 144.045 15.7898C144.244 14.5398 144.151 13.4744 143.768 12.5938C143.398 11.6989 142.759 11.017 141.85 10.5483C140.955 10.0653 139.812 9.82386 138.42 9.82386H134.244L128.533 44H116.687ZM163.306 0.363635H178.05L184.102 25.0795H184.613L198.846 0.363635H213.59L206.346 44H194.755L198.931 18.7727H198.59L184.783 43.6591H177.795L172.255 18.6023H171.914L167.653 44H156.062L163.306 0.363635ZM211.96 44L219.205 0.363635H250.653L249.034 9.90909H229.432L228.239 17.4091H246.222L244.602 26.9545H226.619L225.426 34.4545H244.943L243.324 44H211.96ZM249.284 44L256.529 0.363635H287.211L285.591 9.90909H266.756L265.563 17.4091H282.523L280.904 26.9545H263.944L261.131 44H249.284ZM289.778 0.363635H302.988L308.528 18.0909H308.954L320.375 0.363635H333.585L312.619 30.2784L310.318 44H298.556L300.858 30.2784L289.778 0.363635Z"/>
</mask>
<path d="M0.0852273 44L-0.901271 43.8362L-1.09448 45H0.0852273V44ZM7.32955 0.363635V-0.636365H6.48187L6.34305 0.199861L7.32955 0.363635ZM19.1761 0.363635L20.1628 0.526434L20.3547 -0.636365H19.1761V0.363635ZM16.3636 17.4091L15.377 17.2463L15.1851 18.4091H16.3636V17.4091ZM32.0455 17.4091V18.4091H32.894L33.0321 17.5719L32.0455 17.4091ZM34.858 0.363635V-0.636365H34.0094L33.8713 0.200836L34.858 0.363635ZM46.7045 0.363635L47.691 0.52741L47.8843 -0.636365H46.7045V0.363635ZM39.4602 44V45H40.3079L40.4467 44.1638L39.4602 44ZM27.6136 44L26.627 43.8372L26.4351 45H27.6136V44ZM30.4261 26.9545L31.4128 27.1173L31.6047 25.9545H30.4261V26.9545ZM14.7443 26.9545V25.9545H13.8958L13.7577 26.7917L14.7443 26.9545ZM11.9318 44V45H12.7803L12.9185 44.1628L11.9318 44ZM1.07173 44.1638L8.31604 0.52741L6.34305 0.199861L-0.901271 43.8362L1.07173 44.1638ZM7.32955 1.36364H19.1761V-0.636365H7.32955V1.36364ZM18.1895 0.200836L15.377 17.2463L17.3503 17.5719L20.1628 0.526434L18.1895 0.200836ZM16.3636 18.4091H32.0455V16.4091H16.3636V18.4091ZM33.0321 17.5719L35.8446 0.526434L33.8713 0.200836L31.0588 17.2463L33.0321 17.5719ZM34.858 1.36364H46.7045V-0.636365H34.858V1.36364ZM45.718 0.199861L38.4737 43.8362L40.4467 44.1638L47.691 0.52741L45.718 0.199861ZM39.4602 43H27.6136V45H39.4602V43ZM28.6003 44.1628L31.4128 27.1173L29.4395 26.7917L26.627 43.8372L28.6003 44.1628ZM30.4261 25.9545H14.7443V27.9545H30.4261V25.9545ZM13.7577 26.7917L10.9452 43.8372L12.9185 44.1628L15.731 27.1173L13.7577 26.7917ZM11.9318 43H0.0852273V45H11.9318V43ZM45.0852 44L44.0987 43.8362L43.9055 45H45.0852V44ZM52.3295 0.363635V-0.636365H51.4819L51.343 0.199861L52.3295 0.363635ZM83.7784 0.363635L84.7643 0.530889L84.9623 -0.636365H83.7784V0.363635ZM82.1591 9.90909V10.9091H83.0037L83.145 10.0763L82.1591 9.90909ZM62.5568 9.90909V8.90909H61.7033L61.5692 9.75198L62.5568 9.90909ZM61.3636 17.4091L60.3761 17.252L60.192 18.4091H61.3636V17.4091ZM79.3466 17.4091L80.3325 17.5763L80.5305 16.4091H79.3466V17.4091ZM77.7273 26.9545V27.9545H78.5719L78.7132 27.1218L77.7273 26.9545ZM59.7443 26.9545V25.9545H58.8908L58.7567 26.7974L59.7443 26.9545ZM58.5511 34.4545L57.5636 34.2974L57.3795 35.4545H58.5511V34.4545ZM78.0682 34.4545L79.0541 34.6218L79.2521 33.4545H78.0682V34.4545ZM76.4489 44V45H77.2935L77.4348 44.1673L76.4489 44ZM46.0717 44.1638L53.316 0.52741L51.343 0.199861L44.0987 43.8362L46.0717 44.1638ZM52.3295 1.36364H83.7784V-0.636365H52.3295V1.36364ZM82.7925 0.196382L81.1732 9.74184L83.145 10.0763L84.7643 0.530889L82.7925 0.196382ZM82.1591 8.90909H62.5568V10.9091H82.1591V8.90909ZM61.5692 9.75198L60.3761 17.252L62.3512 17.5662L63.5444 10.0662L61.5692 9.75198ZM61.3636 18.4091H79.3466V16.4091H61.3636V18.4091ZM78.3607 17.2418L76.7414 26.7873L78.7132 27.1218L80.3325 17.5763L78.3607 17.2418ZM77.7273 25.9545H59.7443V27.9545H77.7273V25.9545ZM58.7567 26.7974L57.5636 34.2974L59.5387 34.6117L60.7319 27.1117L58.7567 26.7974ZM58.5511 35.4545H78.0682V33.4545H58.5511V35.4545ZM77.0823 34.2873L75.463 43.8327L77.4348 44.1673L79.0541 34.6218L77.0823 34.2873ZM76.4489 43H45.0852V45H76.4489V43ZM82.4094 44L81.423 43.8362L81.2297 45H82.4094V44ZM89.6538 0.363635V-0.636365H88.8061L88.6673 0.199861L89.6538 0.363635ZM101.5 0.363635L102.487 0.526434L102.679 -0.636365H101.5V0.363635ZM95.8754 34.4545L94.8887 34.2917L94.6968 35.4545H95.8754V34.4545ZM113.517 34.4545L114.503 34.6218L114.701 33.4545H113.517V34.4545ZM111.898 44V45H112.743L112.884 44.1673L111.898 44ZM83.3959 44.1638L90.6403 0.52741L88.6673 0.199861L81.423 43.8362L83.3959 44.1638ZM89.6538 1.36364H101.5V-0.636365H89.6538V1.36364ZM100.514 0.200836L94.8887 34.2917L96.862 34.6173L102.487 0.526434L100.514 0.200836ZM95.8754 35.4545H113.517V33.4545H95.8754V35.4545ZM112.531 34.2873L110.912 43.8327L112.884 44.1673L114.503 34.6218L112.531 34.2873ZM111.898 43H82.4094V45H111.898V43ZM116.687 44L115.7 43.8362L115.507 45H116.687V44ZM123.931 0.363635V-0.636365H123.083L122.945 0.199861L123.931 0.363635ZM150.948 2.28125L150.448 3.14744L150.948 2.28125ZM155.721 7.67188L156.644 7.28686L155.721 7.67188ZM156.403 15.7898L155.416 15.6268L155.416 15.6297L156.403 15.7898ZM152.994 23.9503L152.201 23.3401L152.201 23.3408L152.994 23.9503ZM146.303 29.2131L146.716 30.1241L146.718 30.1231L146.303 29.2131ZM125.977 31.0455L124.99 30.8811L124.796 32.0455H125.977V31.0455ZM127.511 21.8409V20.8409H126.664L126.524 21.6765L127.511 21.8409ZM140.124 21.1165L140.533 22.0294L140.543 22.0248L140.124 21.1165ZM142.745 19.0284L143.547 19.6264L143.551 19.6203L142.745 19.0284ZM144.045 15.7898L145.032 15.9469V15.9469L144.045 15.7898ZM143.768 12.5938L142.843 12.9752L142.847 12.9842L142.851 12.993L143.768 12.5938ZM141.85 10.5483L141.375 11.4283L141.383 11.4328L141.392 11.4371L141.85 10.5483ZM134.244 9.82386V8.82386H133.397L133.257 9.65906L134.244 9.82386ZM128.533 44V45H129.38L129.52 44.1648L128.533 44ZM117.673 44.1638L124.918 0.52741L122.945 0.199861L115.7 43.8362L117.673 44.1638ZM123.931 1.36364H142.766V-0.636365H123.931V1.36364ZM142.766 1.36364C145.875 1.36364 148.42 1.97709 150.448 3.14744L151.448 1.41506C149.045 0.0285921 146.134 -0.636365 142.766 -0.636365V1.36364ZM150.448 3.14744C152.478 4.31855 153.918 5.94829 154.798 8.05689L156.644 7.28686C155.592 4.76478 153.85 2.80076 151.448 1.41506L150.448 3.14744ZM154.798 8.05689C155.676 10.1605 155.905 12.669 155.416 15.6268L157.389 15.9527C157.924 12.7173 157.698 9.81392 156.644 7.28686L154.798 8.05689ZM155.416 15.6297C154.928 18.6371 153.851 21.1983 152.201 23.3401L153.786 24.5605C155.659 22.1284 156.855 19.2493 157.39 15.9498L155.416 15.6297ZM152.201 23.3408C150.557 25.4787 148.459 27.1322 145.889 28.303L146.718 30.1231C149.573 28.8224 151.936 26.9673 153.786 24.5598L152.201 23.3408ZM145.891 28.302C143.338 29.4577 140.455 30.0455 137.227 30.0455V32.0455C140.702 32.0455 143.871 31.4116 146.716 30.1241L145.891 28.302ZM137.227 30.0455H125.977V32.0455H137.227V30.0455ZM126.963 31.2099L128.497 22.0053L126.524 21.6765L124.99 30.8811L126.963 31.2099ZM127.511 22.8409H136.374V20.8409H127.511V22.8409ZM136.374 22.8409C137.908 22.8409 139.301 22.5801 140.533 22.0293L139.716 20.2037C138.788 20.6188 137.682 20.8409 136.374 20.8409V22.8409ZM140.543 22.0248C141.764 21.4624 142.773 20.6637 143.547 19.6264L141.944 18.4304C141.382 19.1829 140.644 19.7762 139.706 20.2082L140.543 22.0248ZM143.551 19.6203C144.324 18.5678 144.812 17.3348 145.032 15.9469L143.057 15.6327C142.88 16.7448 142.501 17.6708 141.939 18.4365L143.551 19.6203ZM145.032 15.9469C145.252 14.5671 145.165 13.2975 144.685 12.1945L142.851 12.993C143.138 13.6513 143.235 14.5124 143.057 15.6327L145.032 15.9469ZM144.692 12.2123C144.227 11.0853 143.415 10.2302 142.308 9.65949L141.392 11.4371C142.103 11.8039 142.57 12.3124 142.843 12.9752L144.692 12.2123ZM142.325 9.66827C141.24 9.08289 139.919 8.82386 138.42 8.82386V10.8239C139.704 10.8239 140.67 11.0478 141.375 11.4283L142.325 9.66827ZM138.42 8.82386H134.244V10.8239H138.42V8.82386ZM133.257 9.65906L127.547 43.8352L129.52 44.1648L135.23 9.98866L133.257 9.65906ZM128.533 43H116.687V45H128.533V43ZM163.306 0.363635V-0.636365H162.458L162.32 0.199861L163.306 0.363635ZM178.05 0.363635L179.022 0.125831L178.835 -0.636365H178.05V0.363635ZM184.102 25.0795L183.13 25.3173L183.317 26.0795H184.102V25.0795ZM184.613 25.0795V26.0795H185.191L185.48 25.5786L184.613 25.0795ZM198.846 0.363635V-0.636365H198.268L197.979 -0.135397L198.846 0.363635ZM213.59 0.363635L214.577 0.52741L214.77 -0.636365H213.59V0.363635ZM206.346 44V45H207.194L207.332 44.1638L206.346 44ZM194.755 44L193.768 43.8367L193.576 45H194.755V44ZM198.931 18.7727L199.918 18.936L200.11 17.7727H198.931V18.7727ZM198.59 18.7727V17.7727H198.001L197.716 18.2876L198.59 18.7727ZM184.783 43.6591V44.6591H185.372L185.658 44.1442L184.783 43.6591ZM177.795 43.6591L176.818 43.875L176.992 44.6591H177.795V43.6591ZM172.255 18.6023L173.231 18.3864L173.058 17.6023H172.255V18.6023ZM171.914 18.6023V17.6023H171.068L170.928 18.4368L171.914 18.6023ZM167.653 44V45H168.499L168.639 44.1655L167.653 44ZM156.062 44L155.075 43.8362L154.882 45H156.062V44ZM163.306 1.36364H178.05V-0.636365H163.306V1.36364ZM177.079 0.601439L183.13 25.3173L185.073 24.8417L179.022 0.125831L177.079 0.601439ZM184.102 26.0795H184.613V24.0795H184.102V26.0795ZM185.48 25.5786L199.712 0.862667L197.979 -0.135397L183.746 24.5805L185.48 25.5786ZM198.846 1.36364H213.59V-0.636365H198.846V1.36364ZM212.604 0.199861L205.359 43.8362L207.332 44.1638L214.577 0.52741L212.604 0.199861ZM206.346 43H194.755V45H206.346V43ZM195.742 44.1633L199.918 18.936L197.945 18.6094L193.768 43.8367L195.742 44.1633ZM198.931 17.7727H198.59V19.7727H198.931V17.7727ZM197.716 18.2876L183.909 43.174L185.658 44.1442L199.465 19.2579L197.716 18.2876ZM184.783 42.6591H177.795V44.6591H184.783V42.6591ZM178.771 43.4432L173.231 18.3864L171.279 18.8181L176.818 43.875L178.771 43.4432ZM172.255 17.6023H171.914V19.6023H172.255V17.6023ZM170.928 18.4368L166.666 43.8345L168.639 44.1655L172.9 18.7677L170.928 18.4368ZM167.653 43H156.062V45H167.653V43ZM157.048 44.1638L164.293 0.52741L162.32 0.199861L155.075 43.8362L157.048 44.1638ZM211.96 44L210.974 43.8362L210.781 45H211.96V44ZM219.205 0.363635V-0.636365H218.357L218.218 0.199861L219.205 0.363635ZM250.653 0.363635L251.639 0.530889L251.837 -0.636365H250.653V0.363635ZM249.034 9.90909V10.9091H249.879L250.02 10.0763L249.034 9.90909ZM229.432 9.90909V8.90909H228.578L228.444 9.75198L229.432 9.90909ZM228.239 17.4091L227.251 17.252L227.067 18.4091H228.239V17.4091ZM246.222 17.4091L247.208 17.5763L247.406 16.4091H246.222V17.4091ZM244.602 26.9545V27.9545H245.447L245.588 27.1218L244.602 26.9545ZM226.619 26.9545V25.9545H225.766L225.632 26.7974L226.619 26.9545ZM225.426 34.4545L224.439 34.2974L224.254 35.4545H225.426V34.4545ZM244.943 34.4545L245.929 34.6218L246.127 33.4545H244.943V34.4545ZM243.324 44V45H244.169L244.31 44.1673L243.324 44ZM212.947 44.1638L220.191 0.52741L218.218 0.199861L210.974 43.8362L212.947 44.1638ZM219.205 1.36364H250.653V-0.636365H219.205V1.36364ZM249.667 0.196382L248.048 9.74184L250.02 10.0763L251.639 0.530889L249.667 0.196382ZM249.034 8.90909H229.432V10.9091H249.034V8.90909ZM228.444 9.75198L227.251 17.252L229.226 17.5662L230.419 10.0662L228.444 9.75198ZM228.239 18.4091H246.222V16.4091H228.239V18.4091ZM245.236 17.2418L243.616 26.7873L245.588 27.1218L247.208 17.5763L245.236 17.2418ZM244.602 25.9545H226.619V27.9545H244.602V25.9545ZM225.632 26.7974L224.439 34.2974L226.414 34.6117L227.607 27.1117L225.632 26.7974ZM225.426 35.4545H244.943V33.4545H225.426V35.4545ZM243.957 34.2873L242.338 43.8327L244.31 44.1673L245.929 34.6218L243.957 34.2873ZM243.324 43H211.96V45H243.324V43ZM249.284 44L248.298 43.8362L248.105 45H249.284V44ZM256.529 0.363635V-0.636365H255.681L255.542 0.199861L256.529 0.363635ZM287.211 0.363635L288.197 0.530889L288.395 -0.636365H287.211V0.363635ZM285.591 9.90909V10.9091H286.436L286.577 10.0763L285.591 9.90909ZM266.756 9.90909V8.90909H265.903L265.768 9.75198L266.756 9.90909ZM265.563 17.4091L264.575 17.252L264.391 18.4091H265.563V17.4091ZM282.523 17.4091L283.509 17.5763L283.707 16.4091H282.523V17.4091ZM280.904 26.9545V27.9545H281.748L281.89 27.1218L280.904 26.9545ZM263.944 26.9545V25.9545H263.095L262.957 26.7917L263.944 26.9545ZM261.131 44V45H261.98L262.118 44.1628L261.131 44ZM250.271 44.1638L257.515 0.52741L255.542 0.199861L248.298 43.8362L250.271 44.1638ZM256.529 1.36364H287.211V-0.636365H256.529V1.36364ZM286.225 0.196382L284.605 9.74184L286.577 10.0763L288.197 0.530889L286.225 0.196382ZM285.591 8.90909H266.756V10.9091H285.591V8.90909ZM265.768 9.75198L264.575 17.252L266.55 17.5662L267.744 10.0662L265.768 9.75198ZM265.563 18.4091H282.523V16.4091H265.563V18.4091ZM281.537 17.2418L279.918 26.7873L281.89 27.1218L283.509 17.5763L281.537 17.2418ZM280.904 25.9545H263.944V27.9545H280.904V25.9545ZM262.957 26.7917L260.144 43.8372L262.118 44.1628L264.93 27.1173L262.957 26.7917ZM261.131 43H249.284V45H261.131V43ZM289.778 0.363635V-0.636365H288.341L288.84 0.71095L289.778 0.363635ZM302.988 0.363635L303.943 0.0653601L303.723 -0.636365H302.988V0.363635ZM308.528 18.0909L307.574 18.3892L307.793 19.0909H308.528V18.0909ZM308.954 18.0909V19.0909H309.5L309.795 18.6325L308.954 18.0909ZM320.375 0.363635V-0.636365H319.829L319.534 -0.177939L320.375 0.363635ZM333.585 0.363635L334.404 0.937567L335.507 -0.636365H333.585V0.363635ZM312.619 30.2784L311.8 29.7045L311.67 29.8898L311.633 30.113L312.619 30.2784ZM310.318 44V45H311.164L311.304 44.1654L310.318 44ZM298.556 44L297.57 43.8346L297.375 45H298.556V44ZM300.858 30.2784L301.844 30.4438L301.888 30.181L301.795 29.9311L300.858 30.2784ZM289.778 1.36364H302.988V-0.636365H289.778V1.36364ZM302.034 0.66191L307.574 18.3892L309.483 17.7926L303.943 0.0653601L302.034 0.66191ZM308.528 19.0909H308.954V17.0909H308.528V19.0909ZM309.795 18.6325L321.215 0.90521L319.534 -0.177939L308.114 17.5493L309.795 18.6325ZM320.375 1.36364H333.585V-0.636365H320.375V1.36364ZM332.766 -0.210297L311.8 29.7045L313.438 30.8523L334.404 0.937567L332.766 -0.210297ZM311.633 30.113L309.332 43.8346L311.304 44.1654L313.605 30.4438L311.633 30.113ZM310.318 43H298.556V45H310.318V43ZM299.543 44.1654L301.844 30.4438L299.871 30.113L297.57 43.8346L299.543 44.1654ZM301.795 29.9311L290.716 0.0163202L288.84 0.71095L299.92 30.6257L301.795 29.9311Z" fill="white" mask="url(#path-1-outside-1_22_547)"/>
</svg>
