<svg width="231" height="47" viewBox="0 0 231 47" fill="none" xmlns="http://www.w3.org/2000/svg">
<mask id="path-1-outside-1_22_547" maskUnits="userSpaceOnUse" x="-2" y="-1" width="234" height="49" fill="black">
<rect fill="white" x="-2" y="-1" width="234" height="49"/>
<path d="M0.0852273 47L7.32955 3.36364H19.1761L16.3636 20.4091H32.0455L34.858 3.36364H46.7045L39.4602 47H27.6136L30.4261 29.9545H14.7443L11.9318 47H0.0852273ZM45.0852 47L52.3295 3.36364H83.7784L82.1591 12.9091H62.5568L61.3636 20.4091H79.3466L77.7273 29.9545H59.7443L58.5511 37.4545H78.0682L76.4489 47H45.0852ZM82.4094 47L89.6538 3.36364H101.5L95.8754 37.4545H113.517L111.898 47H82.4094ZM116.687 47L123.931 3.36364H142.766C146.005 3.36364 148.732 4.00284 150.948 5.28125C153.164 6.55966 154.755 8.35653 155.721 10.6719C156.687 12.9872 156.914 15.6932 156.403 18.7898C155.891 21.9432 154.755 24.6634 152.994 26.9503C151.246 29.223 149.016 30.9773 146.303 32.2131C143.604 33.4347 140.579 34.0455 137.227 34.0455H125.977L127.511 24.8409H136.374C137.795 24.8409 139.045 24.5994 140.124 24.1165C141.204 23.6193 142.077 22.9233 142.745 22.0284C143.413 21.1193 143.846 20.0398 144.045 18.7898C144.244 17.5398 144.151 16.4744 143.768 15.5938C143.398 14.6989 142.759 14.017 141.85 13.5483C140.955 13.0653 139.812 12.8239 138.42 12.8239H134.244L128.533 47H116.687ZM163.306 3.36364H178.05L184.102 28.0795H184.613L198.846 3.36364H213.59L206.346 47H194.755L198.931 21.7727H198.59L184.783 46.6591H177.795L172.255 21.6023H171.914L167.653 47H156.062L163.306 3.36364ZM212.131 47L217.585 14.2727H229.347L223.892 47H212.131ZM223.977 10.8636C222.386 10.8636 221.101 10.3381 220.121 9.28693C219.141 8.22159 218.778 6.95739 219.034 5.49432C219.29 4.00284 220.071 2.73864 221.378 1.7017C222.685 0.650568 224.134 0.125 225.724 0.125C227.33 0.125 228.608 0.650568 229.56 1.7017C230.511 2.73864 230.866 4.00284 230.625 5.49432C230.398 6.95739 229.631 8.22159 228.324 9.28693C227.031 10.3381 225.582 10.8636 223.977 10.8636Z"/>
</mask>
<path d="M0.0852273 47L-0.901271 46.8362L-1.09448 48H0.0852273V47ZM7.32955 3.36364V2.36364H6.48187L6.34305 3.19986L7.32955 3.36364ZM19.1761 3.36364L20.1628 3.52643L20.3547 2.36364H19.1761V3.36364ZM16.3636 20.4091L15.377 20.2463L15.1851 21.4091H16.3636V20.4091ZM32.0455 20.4091V21.4091H32.894L33.0321 20.5719L32.0455 20.4091ZM34.858 3.36364V2.36364H34.0094L33.8713 3.20084L34.858 3.36364ZM46.7045 3.36364L47.691 3.52741L47.8842 2.36364H46.7045V3.36364ZM39.4602 47V48H40.3079L40.4467 47.1638L39.4602 47ZM27.6136 47L26.627 46.8372L26.4351 48H27.6136V47ZM30.4261 29.9545L31.4128 30.1173L31.6047 28.9545H30.4261V29.9545ZM14.7443 29.9545V28.9545H13.8958L13.7577 29.7917L14.7443 29.9545ZM11.9318 47V48H12.7803L12.9185 47.1628L11.9318 47ZM1.07173 47.1638L8.31604 3.52741L6.34305 3.19986L-0.901271 46.8362L1.07173 47.1638ZM7.32955 4.36364H19.1761V2.36364H7.32955V4.36364ZM18.1895 3.20084L15.377 20.2463L17.3503 20.5719L20.1628 3.52643L18.1895 3.20084ZM16.3636 21.4091H32.0455V19.4091H16.3636V21.4091ZM33.0321 20.5719L35.8446 3.52643L33.8713 3.20084L31.0588 20.2463L33.0321 20.5719ZM34.858 4.36364H46.7045V2.36364H34.858V4.36364ZM45.718 3.19986L38.4737 46.8362L40.4467 47.1638L47.691 3.52741L45.718 3.19986ZM39.4602 46H27.6136V48H39.4602V46ZM28.6003 47.1628L31.4128 30.1173L29.4395 29.7917L26.627 46.8372L28.6003 47.1628ZM30.4261 28.9545H14.7443V30.9545H30.4261V28.9545ZM13.7577 29.7917L10.9452 46.8372L12.9185 47.1628L15.731 30.1173L13.7577 29.7917ZM11.9318 46H0.0852273V48H11.9318V46ZM45.0852 47L44.0987 46.8362L43.9055 48H45.0852V47ZM52.3295 3.36364V2.36364H51.4819L51.343 3.19986L52.3295 3.36364ZM83.7784 3.36364L84.7643 3.53089L84.9623 2.36364H83.7784V3.36364ZM82.1591 12.9091V13.9091H83.0037L83.145 13.0763L82.1591 12.9091ZM62.5568 12.9091V11.9091H61.7033L61.5692 12.752L62.5568 12.9091ZM61.3636 20.4091L60.3761 20.252L60.192 21.4091H61.3636V20.4091ZM79.3466 20.4091L80.3325 20.5763L80.5305 19.4091H79.3466V20.4091ZM77.7273 29.9545V30.9545H78.5719L78.7132 30.1218L77.7273 29.9545ZM59.7443 29.9545V28.9545H58.8908L58.7567 29.7974L59.7443 29.9545ZM58.5511 37.4545L57.5636 37.2974L57.3795 38.4545H58.5511V37.4545ZM78.0682 37.4545L79.0541 37.6218L79.2521 36.4545H78.0682V37.4545ZM76.4489 47V48H77.2935L77.4348 47.1673L76.4489 47ZM46.0717 47.1638L53.316 3.52741L51.343 3.19986L44.0987 46.8362L46.0717 47.1638ZM52.3295 4.36364H83.7784V2.36364H52.3295V4.36364ZM82.7925 3.19638L81.1732 12.7418L83.145 13.0763L84.7643 3.53089L82.7925 3.19638ZM82.1591 11.9091H62.5568V13.9091H82.1591V11.9091ZM61.5692 12.752L60.3761 20.252L62.3512 20.5662L63.5444 13.0662L61.5692 12.752ZM61.3636 21.4091H79.3466V19.4091H61.3636V21.4091ZM78.3607 20.2418L76.7414 29.7873L78.7132 30.1218L80.3325 20.5763L78.3607 20.2418ZM77.7273 28.9545H59.7443V30.9545H77.7273V28.9545ZM58.7567 29.7974L57.5636 37.2974L59.5387 37.6117L60.7319 30.1117L58.7567 29.7974ZM58.5511 38.4545H78.0682V36.4545H58.5511V38.4545ZM77.0823 37.2873L75.463 46.8327L77.4348 47.1673L79.0541 37.6218L77.0823 37.2873ZM76.4489 46H45.0852V48H76.4489V46ZM82.4094 47L81.4229 46.8362L81.2297 48H82.4094V47ZM89.6538 3.36364V2.36364H88.8061L88.6673 3.19986L89.6538 3.36364ZM101.5 3.36364L102.487 3.52643L102.679 2.36364H101.5V3.36364ZM95.8754 37.4545L94.8887 37.2917L94.6968 38.4545H95.8754V37.4545ZM113.517 37.4545L114.503 37.6218L114.701 36.4545H113.517V37.4545ZM111.898 47V48H112.743L112.884 47.1673L111.898 47ZM83.3959 47.1638L90.6403 3.52741L88.6673 3.19986L81.4229 46.8362L83.3959 47.1638ZM89.6538 4.36364H101.5V2.36364H89.6538V4.36364ZM100.514 3.20084L94.8887 37.2917L96.862 37.6173L102.487 3.52643L100.514 3.20084ZM95.8754 38.4545H113.517V36.4545H95.8754V38.4545ZM112.531 37.2873L110.912 46.8327L112.884 47.1673L114.503 37.6218L112.531 37.2873ZM111.898 46H82.4094V48H111.898V46ZM116.687 47L115.7 46.8362L115.507 48H116.687V47ZM123.931 3.36364V2.36364H123.083L122.945 3.19986L123.931 3.36364ZM150.948 5.28125L150.448 6.14744L150.448 6.14744L150.948 5.28125ZM155.721 10.6719L156.644 10.2869L156.644 10.2869L155.721 10.6719ZM156.403 18.7898L155.416 18.6268L155.416 18.6297L156.403 18.7898ZM152.994 26.9503L152.201 26.3401L152.201 26.3408L152.994 26.9503ZM146.303 32.2131L146.716 33.1241L146.718 33.1231L146.303 32.2131ZM125.977 34.0455L124.99 33.8811L124.796 35.0455H125.977V34.0455ZM127.511 24.8409V23.8409H126.664L126.524 24.6765L127.511 24.8409ZM140.124 24.1165L140.533 25.0293L140.543 25.0248L140.124 24.1165ZM142.745 22.0284L143.547 22.6264L143.551 22.6203L142.745 22.0284ZM144.045 18.7898L145.032 18.9469L145.032 18.9469L144.045 18.7898ZM143.768 15.5938L142.843 15.9752L142.847 15.9842L142.851 15.993L143.768 15.5938ZM141.85 13.5483L141.375 14.4283L141.383 14.4328L141.392 14.4371L141.85 13.5483ZM134.244 12.8239V11.8239H133.397L133.257 12.6591L134.244 12.8239ZM128.533 47V48H129.38L129.52 47.1648L128.533 47ZM117.673 47.1638L124.918 3.52741L122.945 3.19986L115.7 46.8362L117.673 47.1638ZM123.931 4.36364H142.766V2.36364H123.931V4.36364ZM142.766 4.36364C145.875 4.36364 148.42 4.97709 150.448 6.14744L151.448 4.41506C149.045 3.02859 146.134 2.36364 142.766 2.36364V4.36364ZM150.448 6.14744C152.478 7.31855 153.918 8.94829 154.798 11.0569L156.644 10.2869C155.592 7.76478 153.85 5.80076 151.448 4.41506L150.448 6.14744ZM154.798 11.0569C155.676 13.1605 155.905 15.669 155.416 18.6268L157.389 18.9527C157.924 15.7173 157.698 12.8139 156.644 10.2869L154.798 11.0569ZM155.416 18.6297C154.928 21.6371 153.851 24.1983 152.201 26.3401L153.786 27.5605C155.659 25.1284 156.855 22.2493 157.39 18.9498L155.416 18.6297ZM152.201 26.3408C150.557 28.4787 148.459 30.1322 145.889 31.303L146.718 33.1231C149.573 31.8224 151.936 29.9673 153.786 27.5598L152.201 26.3408ZM145.891 31.302C143.338 32.4577 140.455 33.0455 137.227 33.0455V35.0455C140.702 35.0455 143.871 34.4116 146.716 33.1241L145.891 31.302ZM137.227 33.0455H125.977V35.0455H137.227V33.0455ZM126.963 34.2099L128.497 25.0053L126.524 24.6765L124.99 33.8811L126.963 34.2099ZM127.511 25.8409H136.374V23.8409H127.511V25.8409ZM136.374 25.8409C137.908 25.8409 139.301 25.5801 140.533 25.0293L139.716 23.2037C138.788 23.6188 137.682 23.8409 136.374 23.8409V25.8409ZM140.543 25.0248C141.764 24.4624 142.773 23.6637 143.547 22.6264L141.944 21.4304C141.382 22.1829 140.644 22.7762 139.706 23.2082L140.543 25.0248ZM143.551 22.6203C144.324 21.5678 144.812 20.3348 145.032 18.9469L143.057 18.6327C142.88 19.7448 142.501 20.6708 141.939 21.4365L143.551 22.6203ZM145.032 18.9469C145.252 17.5671 145.165 16.2975 144.685 15.1945L142.851 15.993C143.138 16.6513 143.235 17.5124 143.057 18.6327L145.032 18.9469ZM144.692 15.2123C144.227 14.0853 143.415 13.2301 142.308 12.6595L141.392 14.4371C142.103 14.8039 142.57 15.3124 142.843 15.9752L144.692 15.2123ZM142.325 12.6683C141.24 12.0829 139.919 11.8239 138.42 11.8239V13.8239C139.704 13.8239 140.67 14.0478 141.375 14.4283L142.325 12.6683ZM138.42 11.8239H134.244V13.8239H138.42V11.8239ZM133.257 12.6591L127.547 46.8352L129.52 47.1648L135.23 12.9887L133.257 12.6591ZM128.533 46H116.687V48H128.533V46ZM163.306 3.36364V2.36364H162.458L162.32 3.19986L163.306 3.36364ZM178.05 3.36364L179.022 3.12583L178.835 2.36364H178.05V3.36364ZM184.102 28.0795L183.13 28.3173L183.317 29.0795H184.102V28.0795ZM184.613 28.0795V29.0795H185.191L185.48 28.5786L184.613 28.0795ZM198.846 3.36364V2.36364H198.268L197.979 2.8646L198.846 3.36364ZM213.59 3.36364L214.577 3.52741L214.77 2.36364H213.59V3.36364ZM206.346 47V48H207.194L207.332 47.1638L206.346 47ZM194.755 47L193.768 46.8367L193.576 48H194.755V47ZM198.931 21.7727L199.918 21.936L200.11 20.7727H198.931V21.7727ZM198.59 21.7727V20.7727H198.001L197.716 21.2876L198.59 21.7727ZM184.783 46.6591V47.6591H185.372L185.658 47.1442L184.783 46.6591ZM177.795 46.6591L176.818 46.875L176.992 47.6591H177.795V46.6591ZM172.255 21.6023L173.231 21.3864L173.058 20.6023H172.255V21.6023ZM171.914 21.6023V20.6023H171.068L170.928 21.4368L171.914 21.6023ZM167.653 47V48H168.499L168.639 47.1655L167.653 47ZM156.062 47L155.075 46.8362L154.882 48H156.062V47ZM163.306 4.36364H178.05V2.36364H163.306V4.36364ZM177.079 3.60144L183.13 28.3173L185.073 27.8417L179.022 3.12583L177.079 3.60144ZM184.102 29.0795H184.613V27.0795H184.102V29.0795ZM185.48 28.5786L199.712 3.86267L197.979 2.8646L183.746 27.5805L185.48 28.5786ZM198.846 4.36364H213.59V2.36364H198.846V4.36364ZM212.604 3.19986L205.359 46.8362L207.332 47.1638L214.577 3.52741L212.604 3.19986ZM206.346 46H194.755V48H206.346V46ZM195.742 47.1633L199.918 21.936L197.945 21.6094L193.768 46.8367L195.742 47.1633ZM198.931 20.7727H198.59V22.7727H198.931V20.7727ZM197.716 21.2876L183.909 46.174L185.658 47.1442L199.465 22.2579L197.716 21.2876ZM184.783 45.6591H177.795V47.6591H184.783V45.6591ZM178.771 46.4432L173.231 21.3864L171.279 21.8181L176.818 46.875L178.771 46.4432ZM172.255 20.6023H171.914V22.6023H172.255V20.6023ZM170.928 21.4368L166.666 46.8345L168.639 47.1655L172.9 21.7677L170.928 21.4368ZM167.653 46H156.062V48H167.653V46ZM157.048 47.1638L164.293 3.52741L162.32 3.19986L155.075 46.8362L157.048 47.1638ZM212.131 47L211.144 46.8356L210.95 48H212.131V47ZM217.585 14.2727V13.2727H216.738L216.599 14.1083L217.585 14.2727ZM229.347 14.2727L230.333 14.4371L230.527 13.2727H229.347V14.2727ZM223.892 47V48H224.739L224.878 47.1644L223.892 47ZM220.121 9.28693L219.385 9.964L219.389 9.9689L220.121 9.28693ZM219.034 5.49432L220.019 5.66647L220.02 5.66328L219.034 5.49432ZM221.378 1.7017L221.999 2.48507L222.005 2.48092L221.378 1.7017ZM229.56 1.7017L228.818 2.37289L228.823 2.37788L229.56 1.7017ZM230.625 5.49432L229.638 5.33449L229.637 5.34082L230.625 5.49432ZM228.324 9.28693L228.955 10.0628L228.956 10.062L228.324 9.28693ZM213.117 47.1644L218.572 14.4371L216.599 14.1083L211.144 46.8356L213.117 47.1644ZM217.585 15.2727H229.347V13.2727H217.585V15.2727ZM228.36 14.1083L222.906 46.8356L224.878 47.1644L230.333 14.4371L228.36 14.1083ZM223.892 46H212.131V48H223.892V46ZM223.977 9.86364C222.631 9.86364 221.622 9.43038 220.852 8.60497L219.389 9.9689C220.58 11.2458 222.142 11.8636 223.977 11.8636V9.86364ZM220.857 8.60988C220.093 7.78033 219.815 6.83246 220.019 5.66647L218.049 5.32217C217.741 7.08232 218.188 8.66285 219.385 9.96399L220.857 8.60988ZM220.02 5.66328C220.229 4.43999 220.864 3.3859 221.999 2.48506L220.756 0.918348C219.278 2.09137 218.35 3.56569 218.048 5.32535L220.02 5.66328ZM222.005 2.48092C223.144 1.56433 224.374 1.125 225.724 1.125V-0.875C223.893 -0.875 222.225 -0.263194 220.751 0.922489L222.005 2.48092ZM225.724 1.125C227.088 1.125 228.082 1.55988 228.818 2.37288L230.301 1.03053C229.134 -0.25875 227.571 -0.875 225.724 -0.875V1.125ZM228.823 2.37788C229.551 3.17076 229.835 4.11974 229.638 5.33449L231.612 5.65414C231.898 3.88594 231.472 2.30651 230.296 1.02552L228.823 2.37788ZM229.637 5.34082C229.453 6.52582 228.836 7.57941 227.692 8.51185L228.956 10.062C230.426 8.86377 231.343 7.38895 231.613 5.64782L229.637 5.34082ZM227.693 8.51108C226.571 9.42319 225.343 9.86364 223.977 9.86364V11.8636C225.821 11.8636 227.491 11.2529 228.955 10.0628L227.693 8.51108Z" fill="white" mask="url(#path-1-outside-1_22_547)"/>
</svg>
