<svg width="233" height="233" viewBox="0 0 233 233" fill="none" xmlns="http://www.w3.org/2000/svg">
<path fill-rule="evenodd" clip-rule="evenodd" d="M116.5 60.1909C121.862 60.1909 126.209 64.5375 126.209 69.8993L126.209 112.616L163.1 112.616C168.462 112.616 172.809 116.962 172.809 122.324C172.809 127.686 168.462 132.032 163.1 132.032L121.355 132.033C113.312 132.033 106.792 125.513 106.792 117.47L106.792 69.8993C106.792 64.5375 111.139 60.1909 116.5 60.1909Z" fill="#ffffff"/>
<path fill-rule="evenodd" clip-rule="evenodd" d="M116.5 38.8331C73.6062 38.8331 38.8337 73.6056 38.8337 116.5C38.8337 159.394 73.6062 194.166 116.5 194.166C159.394 194.166 194.167 159.394 194.167 116.5C194.167 73.6056 159.394 38.8331 116.5 38.8331ZM19.417 116.5C19.417 62.8821 62.8827 19.4164 116.5 19.4164C170.118 19.4164 213.584 62.8821 213.584 116.5C213.584 170.117 170.118 213.583 116.5 213.583C62.8827 213.583 19.417 170.117 19.417 116.5Z" fill="#ffffff"/>
</svg>
