<svg width="246" height="246" viewBox="0 0 246 246" fill="none" xmlns="http://www.w3.org/2000/svg">
<path fill-rule="evenodd" clip-rule="evenodd" d="M107.625 40.9999C90.6422 40.9999 76.875 54.7671 76.875 71.7499C76.875 88.7327 90.6422 102.5 107.625 102.5C124.608 102.5 138.375 88.7327 138.375 71.7499C138.375 54.7671 124.608 40.9999 107.625 40.9999ZM56.375 71.7499C56.375 43.4453 79.3204 20.4999 107.625 20.4999C135.93 20.4999 158.875 43.4453 158.875 71.7499C158.875 100.054 135.93 123 107.625 123C79.3204 123 56.375 100.054 56.375 71.7499Z" fill="#ffffff"/>
<path fill-rule="evenodd" clip-rule="evenodd" d="M231.507 167.948C235.509 171.951 235.509 178.441 231.507 182.444L190.507 223.444C186.504 227.447 180.014 227.447 176.011 223.444L155.511 202.944C151.508 198.941 151.508 192.451 155.511 188.448C159.514 184.445 166.004 184.445 170.007 188.448L183.259 201.7L217.011 167.948C221.014 163.945 227.504 163.945 231.507 167.948Z" fill="#ffffff"/>
<path fill-rule="evenodd" clip-rule="evenodd" d="M71.75 164C54.7672 164 41 177.767 41 194.75V215.25C41 220.911 36.4109 225.5 30.75 225.5C25.0891 225.5 20.5 220.911 20.5 215.25V194.75C20.5 166.445 43.4454 143.5 71.75 143.5H153.75C159.411 143.5 164 148.089 164 153.75C164 159.411 159.411 164 153.75 164H71.75Z" fill="#ffffff"/>
</svg>
